<?xml version="1.0" encoding="UTF-8"?>
<svg id="Layer_1" data-name="Layer 1" xmlns="http://www.w3.org/2000/svg" viewBox="0 0 1000 940.84">
  <defs>
    <style>
      .cls-1 {
        fill: #65dba5;
      }

      .cls-2 {
        fill: #242424;
      }
    </style>
  </defs>
  <path class="cls-1" d="M838.53,940.26c-17.46,0-33.7-9.03-42.86-23.89-7.67-12.44-13.58-26.08-21.7-38.21-3.34-4.99-6.39-10.27-8.85-15.75-7.26-16.16,5.11-34.43,22.82-34.54,47.82-.3,95.65-.23,143.48,.03,14.25,.08,24.23,8.02,31.3,19.89,8.69,14.6,15.58,29.35,23.34,44.04,4.19,7.92,8.02,16.04,11.2,24.41,1.06,2.79,2.06,5.54,2.36,7.97-.02,.07-.04,.14-.06,.21-2.63,9.42-11.34,15.84-21.12,15.84h-139.93Z"/>
  <path class="cls-2" d="M40.59,924.77h0c-39.28-25.18-51.86-76.78-28.56-117.21L476.64,1.12l441.78,770.56-454.57,.51c-47.85,.05-86.66-38.72-86.66-86.56h0c0-49.7,40.1-90.08,89.8-90.42l142.81-.98-134.75-232.61L167.97,893.78c-25.84,44.78-83.85,58.89-127.37,30.99Z"/>
</svg>